<?xml version="1.0" encoding="utf-8"?>
<!-- Generator: Adobe Illustrator 26.3.1, SVG Export Plug-In . SVG Version: 6.00 Build 0)  -->
<svg version="1.1" id="Capa_1" xmlns="http://www.w3.org/2000/svg" xmlns:xlink="http://www.w3.org/1999/xlink" x="0px" y="0px"
	 viewBox="0 0 270 270" style="enable-background:new 0 0 270 270;" xml:space="preserve">
<style type="text/css">
	.st0{fill:#861E39;}
</style>
<g>
	<path class="st0" d="M134.89,97.36c3.09,1.28,6.12,2.74,9.29,3.79c2.7,0.89,6.05,4.17,8.25,0.23c2.27-4.06,6.37-7.78,1.95-13.74
		c-8.92-12.02-7.82-27.07,1.67-37.45c9.05-9.91,24.46-12.95,35.5-7.02c12.93,6.95,19.42,20.93,15.44,35.07
		c-3.38,12-11.77,19.62-24.14,21.15c-7.46,0.92-7.19,6.41-8.39,10.91c-1.28,4.8,3.68,4.81,6.41,6.05c6.9,3.13,13.94,5.97,20.98,8.77
		c4.12,1.64,5.15,4.06,3.63,8.37c-5.58,15.82-5.47,15.85-21.1,9.38c-4.74-1.96-9.49-3.88-14.23-5.86c-3.32-1.38-5.58-0.47-6.85,2.95
		c-6.27,16.92-12.85,33.74-18.71,50.8c-2.7,7.85,0.12,11.43,8.44,13.21c12.78,2.73,25.23,1.37,37.56-2.67
		c3.87-1.27,5.31-2.65,2.45-6.42c-1.8-2.37-4.65-5.04-2.45-8.31c2.15-3.19,5.77-1.43,8.74-1.26c8.01,0.46,16,1.27,24.01,1.71
		c5.39,0.3,8.03,2.3,6.11,8.02c-3.04,9.08-5.8,18.26-9.13,27.23c-1.98,5.33-5.81,5.86-8.53,0.93c-3.52-6.37-6.75-6.49-13.02-3.24
		c-22.74,11.8-46.25,14-70.18,3.16c-3.68-1.67-6.98-2.01-10.37,1.27c-3.44,3.33-6.51,2.01-6.7-2.66c-0.19-4.61-2.4-6.89-6.3-8.35
		c-25.38-9.51-40.36-28.49-48.13-53.68c-1.57-5.09-3.35-7.18-8.73-5.41c-2.37,0.78-5.36,1.93-7.46-0.71
		c-2.04-2.57-0.44-5.15,0.72-7.5c3.96-7.98,8.05-15.89,12.07-23.84c2.46-4.86,5.64-5.06,9.57-1.65c6.89,6,13.84,11.93,20.78,17.88
		c1.72,1.48,3.59,3.03,2.96,5.56c-0.64,2.57-3.14,2.86-5.28,3.44c-7.41,1.99-7.34,1.96-3.79,8.86
		c5.53,10.74,13.34,19.43,23.27,26.23c6.91,4.73,11.66,4.07,15.27-3.27c7.96-16.19,15.28-32.69,22.91-49.04
		c1.72-3.68,0.45-5.86-3.1-7.31c-7.02-2.86-13.97-5.88-21-8.74c-4.95-2.01-6.78-4.76-4.51-10.34c5.73-14.12,5.52-14.21,19.79-8.29
		C132,96.17,133.45,96.77,134.89,97.36z M50.49,146.24c9.58-3.39,11.29,1.24,12.91,7.78c6.03,24.4,20.26,41.95,43.69,52.29
		c8.06,3.56,16.07,6.95,24.28,10.16c23.86,9.33,46.26,7.4,67.95-5.34c5.87-3.45,10.89-6.7,15.26,2.41
		c2.76-6.42,7.21-12.27,4.9-17.72c-1.59-3.75-8.55-1.5-13.04-2.41c-0.21-0.04-0.44,0-0.67,0c-2.57,0.02-4.04,0.79-2.38,3.58
		c2.46,4.14,0.78,6.6-3.16,8.39c-16.13,7.31-32.87,9.7-50.22,5.79c-11.71-2.64-16.8-11.4-12.92-22.63
		c6.62-19.15,13.8-38.11,20.66-57.17c1.84-5.12,5.05-6.33,9.91-4.27c6.98,2.95,13.97,5.89,21.03,8.64c2.66,1.04,6.01,3.72,7.83-0.95
		c1.65-4.25-2.35-4.63-4.77-5.69c-7.35-3.21-14.8-6.19-22.2-9.3c-2.06-0.86-4.63-1.74-4.58-4.32c0.15-7.31,3.44-13.77,6.46-20.19
		c1.93-4.1,6.26-2.52,9.61-3.04c9.8-1.5,16.89-7.92,18.99-18.15c1.77-8.62-1.17-15.97-7.99-21.36c-7.78-6.15-17.5-6.42-25.69-1.33
		c-11.62,7.24-13.89,22.97-4.33,33.7c3.55,3.98,4.29,7.38,1.82,11.92c-1.92,3.52-3.55,7.19-5.25,10.82
		c-2.11,4.49-5.18,5.48-9.78,3.43c-7.53-3.36-15.21-6.38-22.84-9.49c-2.24-0.91-4.73-2.28-6.28,1c-1.71,3.6,0.96,4.74,3.51,5.81
		c6.99,2.94,14.02,5.76,20.98,8.76c7.02,3.02,7.84,4.95,4.69,11.77c-8.12,17.59-16.28,35.16-24.62,52.65
		c-5.76,12.07-15.81,14.79-26.92,7.3c-12.68-8.55-22.14-19.85-28.19-33.98c-4.3-10.06-4.39-10.03,5.23-14.96
		c-3.64-3.14-7.24-6.07-10.63-9.22c-2.66-2.47-4.75-2.13-6.32,0.96C55.27,136.02,53.35,140.26,50.49,146.24z"/>
	<path class="st0" d="M172.49,83.5c-7.86-3.37-11.04-11.48-7.57-19.33c3.29-7.47,11.42-10.76,18.87-7.65
		c7.84,3.28,11.24,11.49,7.99,19.27C188.48,83.66,180.4,86.89,172.49,83.5z M180.69,63.58c-4.18-1.24-7.23,0.01-8.8,3.94
		c-1.71,4.25-0.28,7.55,4.02,9.12c3.94,1.44,7.17,0.03,8.74-3.85C186.35,68.55,184.62,65.46,180.69,63.58z"/>
</g>
</svg>
