<?xml version="1.0" encoding="utf-8"?>
<!-- Generator: Adobe Illustrator 26.3.1, SVG Export Plug-In . SVG Version: 6.00 Build 0)  -->
<svg version="1.1" id="Capa_1" xmlns="http://www.w3.org/2000/svg" xmlns:xlink="http://www.w3.org/1999/xlink" x="0px" y="0px"
	 viewBox="0 0 270 270" style="enable-background:new 0 0 270 270;" xml:space="preserve">
<style type="text/css">
	.st0{fill:#861E39;}
</style>
<g id="cllpn7_00000034073160367201395160000002522404845776105632_">
	<g>
		<path class="st0" d="M105.14,32.72c0.75,1.28,1.52,2.56,2.26,3.85c2.69,4.68,5.4,9.35,8.05,14.06c0.52,0.93,1.01,1.29,2.16,1.01
			c8.18-1.99,16.48-2.83,24.9-2.43c8.73,0.41,17.18,2.14,25.39,5.09c8.47,3.04,16.28,7.31,23.37,12.8
			c10.87,8.42,19.34,18.82,25.25,31.27c0.74,1.55,1.49,3.09,2.04,4.72c0.34,1,0.91,1.41,2.07,1.27c6.28-0.72,12.57-1.34,18.85-2
			c0.56-0.06,1.12-0.1,1.73-0.01c-0.93,1.02-2.17,1.51-3.29,2.16c-4.7,2.75-9.44,5.42-14.16,8.13c-1.73,0.99-1.69,0.99-1.21,2.85
			c2.06,7.97,2.74,16.07,2.36,24.28c-0.54,11.7-3.31,22.85-8.42,33.39c-8.52,17.57-21.47,30.87-38.86,39.8
			c-2.16,1.11-4.35,2.16-6.62,3.01c-1.22,0.46-1.36,1.17-1.23,2.3c0.71,6.41,1.37,12.82,2.04,19.23c0.04,0.35,0.24,0.74-0.25,1.15
			c-1.02-1.75-2.03-3.46-3.03-5.19c-2.49-4.32-4.97-8.63-7.43-12.96c-0.4-0.7-0.84-0.89-1.63-0.71c-7.81,1.86-15.73,2.8-23.77,2.55
			c-11.32-0.36-22.13-2.85-32.48-7.44c-8.96-3.98-17.04-9.31-24.18-16.02c-6.82-6.42-12.45-13.76-16.92-22.01
			c-1.54-2.84-2.83-5.78-4.09-8.74c-0.36-0.84-0.76-1.13-1.68-1.03c-6.36,0.71-12.73,1.37-19.1,2.05c-0.57,0.06-1.15,0.11-1.71,0.16
			c-0.12-0.55,0.26-0.58,0.48-0.71c5.7-3.27,11.4-6.54,17.11-9.79c1.02-0.58,1.44-1.16,1.12-2.49c-4.41-18.37-3.05-36.34,4.13-53.8
			c4.18-10.16,10.17-19.18,17.84-27.1c7.26-7.49,15.61-13.38,24.95-17.93c1.58-0.77,3.2-1.46,4.83-2.1c0.84-0.33,1.12-0.78,1.01-1.7
			c-0.74-6.53-1.42-13.06-2.12-19.6c-0.04-0.41-0.05-0.82-0.08-1.23C104.94,32.8,105.04,32.76,105.14,32.72z M166.3,80.65
			c0.32,0.8,0.02,1.29-0.11,1.79c-2.42,9.02-4.86,18.03-7.29,27.04c-0.38,1.4-0.32,1.47,1.1,1.32c5.33-0.57,10.65-1.15,15.98-1.72
			c9.78-1.04,19.56-2.08,29.34-3.12c1.62-0.17,1.62-0.23,0.92-1.72c-1.48-3.15-3.16-6.18-5.04-9.11
			c-7.01-10.86-16.28-19.26-27.63-25.38c-8.13-4.38-16.8-7.08-25.95-8.24c-8-1.01-15.96-0.66-23.87,0.85
			c-0.98,0.19-1.27,0.51-0.68,1.5c1.85,3.09,3.62,6.22,5.41,9.35c5.8,10.13,11.6,20.27,17.41,30.4c0.7,1.22,0.81,1.24,1.7,0.14
			c4.59-5.66,9.16-11.33,13.74-16.99C162.93,84.76,164.57,82.78,166.3,80.65z M193.84,163.85c-0.63,0.18-1.07,0-1.49-0.11
			c-6.14-1.65-12.28-3.33-18.42-4.99c-3.23-0.88-6.47-1.75-9.69-2.64c-0.81-0.22-1.08,0-0.97,0.83c0.18,1.33,0.3,2.66,0.45,3.99
			c1.46,13.69,2.95,27.38,4.37,41.07c0.28,2.71,0.47,2.17,2.38,1.27c11.36-5.37,20.74-13.16,28.18-23.25
			c5.16-7,8.94-14.71,11.43-23.06c3.54-11.87,3.99-23.87,1.67-36.02c-0.19-1.02-0.57-1.11-1.43-0.59c-2,1.21-4.06,2.34-6.09,3.51
			c-11.21,6.44-22.42,12.88-33.64,19.33c-1.3,0.75-1.3,0.75-0.15,1.78c0.12,0.11,0.25,0.23,0.38,0.33
			C178.45,151.44,186.07,157.58,193.84,163.85z M83.24,107.77c0.05-0.09,0.1-0.17,0.14-0.26c0.16,0.02,0.32,0.01,0.48,0.06
			c3.56,0.96,7.11,1.93,10.67,2.89c5.9,1.6,11.79,3.21,17.7,4.78c1.31,0.35,1.36,0.27,1.22-1.08c-1.6-15.11-3.2-30.22-4.8-45.32
			c-0.17-1.58-0.3-1.66-1.74-0.96c-2.83,1.37-5.58,2.86-8.25,4.52c-11.75,7.31-20.63,17.26-26.92,29.5
			c-5.29,10.29-7.95,21.28-8.12,32.87c-0.07,5.17,0.46,10.28,1.4,15.35c0.28,1.48,0.44,1.55,1.52,0.93
			c13.28-7.63,26.56-15.26,39.85-22.87c0.92-0.53,1.07-0.81,0.15-1.55c-6.83-5.46-13.63-10.97-20.43-16.47
			C85.13,109.37,84.19,108.56,83.24,107.77z M110.47,190.89c-0.11-0.05-0.23-0.1-0.34-0.15c0.75-2.77,1.49-5.55,2.24-8.32
			c1.84-6.79,3.68-13.58,5.51-20.37c0.4-1.49,0.36-1.52-1.08-1.37c-14.56,1.55-29.13,3.11-43.7,4.66c-3.26,0.35-3.3,0.36-1.86,3.31
			c4.4,9.04,10.42,16.87,17.99,23.46c7.5,6.52,16,11.38,25.45,14.53c6.43,2.15,13.02,3.43,19.8,3.79
			c6.09,0.32,12.12-0.15,18.12-1.27c1.76-0.33,1.8-0.35,0.91-1.91c-3.79-6.61-7.56-13.23-11.35-19.83
			c-3.77-6.57-7.57-13.12-11.35-19.69c-0.39-0.68-0.7-1.16-1.42-0.26c-4.19,5.23-8.39,10.44-12.6,15.65
			C114.69,185.72,112.58,188.3,110.47,190.89z M44.17,167.21c0,0.03,0,0.06,0,0.09c0.41-0.04,0.83-0.06,1.24-0.11
			c13.69-1.46,27.38-2.92,41.07-4.37c12.65-1.34,25.3-2.68,37.95-4c0.84-0.09,1.36-0.41,1.75-1.17c3.13-6.16,6.3-12.29,9.42-18.45
			c0.28-0.55,0.72-1.09,0.67-1.87C105.5,147.32,74.83,157.26,44.17,167.21z M169.68,229.18c0.09-0.01,0.17-0.01,0.26-0.02
			c-0.21-1.98-0.42-3.97-0.64-5.95c-1.42-13.32-2.85-26.64-4.27-39.95c-1.2-11.2-2.4-22.39-3.57-33.59
			c-0.09-0.86-0.43-1.34-1.18-1.72c-6.35-3.21-12.68-6.46-19.02-9.68c-0.33-0.17-0.66-0.56-1.17-0.28
			C149.96,168.4,159.82,198.79,169.68,229.18z M107.11,42.4c-0.08,0.01-0.16,0.03-0.24,0.04c0.38,3.44,0.76,6.89,1.13,10.33
			c1.17,10.98,2.33,21.97,3.5,32.96c1.28,11.98,2.56,23.97,3.83,35.95c0.07,0.68,0.15,1.28,0.89,1.66
			c6.44,3.3,12.87,6.62,19.31,9.93c0.25,0.13,0.52,0.38,0.8,0.15c0.28-0.22,0.1-0.54,0.03-0.82c-0.06-0.24-0.15-0.48-0.23-0.72
			c-8.18-25.21-16.35-50.42-24.53-75.63C110.11,51.63,108.61,47.02,107.11,42.4z M231.74,104.42c-0.55-0.26-0.92-0.13-1.28-0.09
			c-7.7,0.83-15.39,1.66-23.09,2.48c-12.56,1.35-25.13,2.69-37.69,4.03c-5.78,0.62-11.57,1.23-17.35,1.83
			c-0.6,0.06-1.16,0.11-1.48,0.74c-0.43,0.86-0.92,1.69-1.35,2.55c-2.05,4.02-4.09,8.05-6.14,12.07c-0.99,1.95-2.01,3.88-3.16,6.09
			C170.9,124.16,201.25,114.31,231.74,104.42z"/>
		<path class="st0" d="M23.51,171.89c-0.07,2.14-0.14,4.21-0.2,6.28c-0.02,0.75,0,1.51-0.03,2.26c-0.02,0.39,0.13,0.92-0.4,1.07
			c-0.45,0.13-0.64-0.33-0.86-0.61c-2-2.58-3.99-5.17-5.98-7.75c-0.77-0.99-1.55-1.98-2.32-2.97c-0.45-0.58-0.93-1.08-1.75-1.06
			c-0.24,0.01-0.54,0-0.56-0.34c-0.01-0.24,0.21-0.36,0.4-0.42c1.43-0.47,2.87-0.93,4.3-1.39c0.2-0.06,0.45-0.07,0.56,0.14
			c0.12,0.22-0.05,0.4-0.22,0.52c-0.54,0.39-0.82,0.83-0.36,1.47c1.83,2.6,3.77,5.1,5.98,7.85c0.13-2.54,0.55-4.83,0.07-6.98
			c-0.32-1.44-1.4-2.88-3.25-3.1c-0.21-0.02-0.46-0.01-0.51-0.26c-0.07-0.32,0.19-0.44,0.42-0.52c1.51-0.51,3.02-1,4.53-1.49
			c0.23-0.07,0.52-0.13,0.63,0.19c0.08,0.24-0.12,0.39-0.3,0.49c-0.71,0.42-0.91,1.01-0.42,1.68c1.88,2.55,3.79,5.07,5.82,7.79
			c0.31-1.28,0.14-2.31,0.16-3.34c0.05-2.05,0.08-4.1,0.12-6.15c0.02-0.89-0.27-1.47-1.3-1.38c-0.24,0.02-0.56,0.02-0.6-0.3
			c-0.03-0.29,0.27-0.4,0.5-0.48c1.03-0.34,2.07-0.67,3.11-0.99c0.23-0.07,0.53-0.13,0.65,0.16c0.04,0.1-0.05,0.35-0.16,0.42
			c-1.24,0.9-0.95,2.25-0.98,3.46c-0.11,3.93-0.15,7.87-0.25,11.8c-0.01,0.43,0.19,1.03-0.36,1.22c-0.56,0.2-0.78-0.4-1.04-0.74
			c-1.45-1.84-2.86-3.72-4.29-5.57C24.37,172.53,24.13,172.12,23.51,171.89z"/>
		<path class="st0" d="M95.88,18.1c1.04,3.2,1.97,6.23,3.02,9.22c0.36,1.04,1.45,0.49,2.27,0.79c-1.54,0.93-3.22,1.44-5.03,1.82
			c0.02-0.27,0-0.38,0.04-0.41c1.56-1.18,1.56-1.18,0.94-3.11c-0.89-2.75-1.79-5.5-2.68-8.25c-0.63-1.95-0.91-2.16-2.94-2.2
			c-0.28-0.01-0.6,0.08-0.78-0.24c1.3-1.34,3.84-1.67,5.27-0.74c3.33,2.17,6.68,4.32,10.02,6.47c0.1,0.06,0.23,0.08,0.34,0.12
			c0.35-0.26,0.11-0.55,0.03-0.79c-0.76-2.39-1.56-4.78-2.31-7.18c-0.29-0.93-0.77-1.46-1.83-1.21c-0.25,0.06-0.64,0.19-0.7-0.25
			c-0.04-0.3,0.28-0.39,0.51-0.47c1.23-0.41,2.47-0.81,3.71-1.2c0.23-0.07,0.54-0.16,0.68,0.11c0.15,0.29-0.14,0.46-0.35,0.55
			c-1.08,0.47-1.02,1.26-0.71,2.2c1.24,3.78,2.46,7.57,3.67,11.36c0.12,0.38,0.45,0.84,0.08,1.18c-0.46,0.41-0.87-0.08-1.22-0.3
			c-3.39-2.16-6.76-4.35-10.14-6.52C97.24,18.73,96.78,18.27,95.88,18.1z"/>
		<path class="st0" d="M242.09,94.38c0.26-0.82,0.84-0.8,1.28-0.95c2.82-0.94,5.65-1.85,8.47-2.76c1.54-0.5,1.62-0.47,2.14,1.09
			c0.18,0.53,0.52,1.05,0.37,1.65c-0.33,0.23-0.52-0.01-0.64-0.2c-0.88-1.3-2.01-1.45-3.4-0.87c-0.88,0.37-1.82,0.62-2.74,0.9
			c-0.66,0.2-0.85,0.58-0.62,1.23c0.42,1.23,0.81,2.46,1.2,3.7c0.21,0.66,0.6,0.83,1.25,0.58c0.7-0.27,1.43-0.47,2.14-0.72
			c0.97-0.34,1.75-0.83,1.6-2.06c-0.03-0.25-0.03-0.56,0.28-0.61c0.3-0.05,0.43,0.23,0.5,0.47c0.42,1.27,0.84,2.54,1.24,3.82
			c0.08,0.24,0.14,0.55-0.13,0.68c-0.36,0.17-0.52-0.16-0.65-0.42c-0.5-0.97-1.3-1.1-2.24-0.8c-4.15,1.32-3.42,0.66-2.35,4.13
			c1.05,3.42,0.68,3.1,4.08,2.12c1.93-0.55,3.17-1.58,3.54-3.59c0.06-0.3,0.09-0.79,0.52-0.74c0.44,0.05,0.31,0.53,0.32,0.83
			c0.16,3.17,0.16,3.17-2.89,4.16c-2.51,0.81-5.01,1.63-7.52,2.43c-0.34,0.11-0.83,0.41-1.04,0.05c-0.29-0.51,0.37-0.53,0.63-0.71
			c0.74-0.51,0.9-1.18,0.65-1.98c-1.09-3.39-2.21-6.76-3.29-10.15C244.37,94.34,243.4,94.06,242.09,94.38z"/>
		<path class="st0" d="M178.39,245.11c0.15,0.56,0.31,1.13,0.46,1.69c0.07,0.24,0.23,0.52-0.04,0.68c-0.37,0.21-0.49-0.16-0.66-0.38
			c-0.26-0.33-0.48-0.68-0.76-1c-1.23-1.43-2.96-1.79-4.66-0.97c-0.88,0.42-1.37,1.11-1.38,2.08c-0.01,0.98,0.62,1.47,1.47,1.81
			c1.58,0.62,3.25,0.8,4.88,1.18c1.48,0.34,2.95,0.71,3.85,2.11c1.33,2.06,0.74,4.6-1.39,6.03c-1.27,0.85-2.69,1.1-4.19,1.08
			c-0.71-0.01-1.43-0.07-1.86,0.72c-0.27,0.5-0.56,0.26-0.69-0.11c-0.45-1.31-0.87-2.62-1.28-3.94c-0.06-0.19-0.11-0.44,0.13-0.54
			c0.25-0.11,0.37,0.11,0.5,0.27c0.31,0.4,0.58,0.82,0.91,1.2c1.24,1.41,3.75,1.7,5.29,0.63c1.69-1.18,1.6-3.15-0.19-4.14
			c-1.2-0.66-2.58-0.67-3.87-1.03c-0.85-0.24-1.72-0.39-2.53-0.71c-2.14-0.82-3.09-2.3-2.87-4.31c0.2-1.83,1.86-3.51,3.82-3.81
			c0.7-0.11,1.42-0.11,2.13-0.1c0.56,0.01,1.06,0.08,1.33-0.61c0.29-0.73,0.65-0.34,0.83,0.08c0.28,0.69,0.48,1.43,0.71,2.14
			C178.36,245.12,178.38,245.11,178.39,245.11z"/>
		<path class="st0" d="M98.3,215.05c0.09,0.39-0.13,0.67-0.28,0.96c-3.74,7.35-7.49,14.69-11.24,22.04
			c-1.26,2.46-2.51,4.92-3.78,7.37c-0.19,0.37-0.32,1.02-0.96,0.64c-0.55-0.32-0.13-0.73,0.05-1.08c2.92-5.74,5.85-11.48,8.77-17.22
			c1.93-3.8,3.86-7.61,5.79-11.41c0.23-0.45,0.46-0.9,0.75-1.3C97.68,214.65,98.02,214.65,98.3,215.05z"/>
		<path class="st0" d="M59.35,95.06c0.02,0.41-0.17,0.66-0.59,0.55c-0.4-0.11-0.77-0.31-1.15-0.5c-9.55-4.85-19.09-9.71-28.63-14.57
			c-0.22-0.11-0.43-0.26-0.64-0.39c-0.29-0.17-0.43-0.41-0.27-0.73c0.18-0.37,0.47-0.27,0.75-0.14c0.6,0.29,1.2,0.59,1.8,0.89
			c9.28,4.74,18.57,9.48,27.85,14.22C58.79,94.56,59.18,94.66,59.35,95.06z"/>
		<path class="st0" d="M248.79,191.71c-0.04,0.1-0.06,0.27-0.16,0.38c-0.26,0.29-0.55,0.11-0.8-0.01c-1.54-0.74-3.1-1.47-4.62-2.25
			c-7.41-3.78-14.81-7.58-22.21-11.37c-0.93-0.48-1.88-0.92-2.79-1.43c-0.35-0.2-1.02-0.38-0.64-0.98c0.31-0.5,0.75-0.08,1.1,0.09
			c5.26,2.67,10.51,5.35,15.77,8.03c4.47,2.28,8.94,4.57,13.41,6.86C248.17,191.18,248.56,191.27,248.79,191.71z"/>
		<path class="st0" d="M194.92,25.57c0.09,0.47-0.15,0.78-0.32,1.11c-4.98,9.76-9.97,19.52-14.96,29.28
			c-0.18,0.35-0.3,0.92-0.87,0.62c-0.56-0.29-0.17-0.73,0-1.08c4.32-8.5,8.66-16.99,12.99-25.49c0.7-1.38,1.36-2.78,2.05-4.16
			c0.15-0.29,0.32-0.63,0.74-0.54C194.7,25.35,194.82,25.5,194.92,25.57z"/>
	</g>
</g>
</svg>
