<?xml version="1.0" encoding="utf-8"?>
<!-- Generator: Adobe Illustrator 26.3.1, SVG Export Plug-In . SVG Version: 6.00 Build 0)  -->
<svg version="1.1" id="Capa_1" xmlns="http://www.w3.org/2000/svg" xmlns:xlink="http://www.w3.org/1999/xlink" x="0px" y="0px"
	 viewBox="0 0 270 270" style="enable-background:new 0 0 270 270;" xml:space="preserve">
<style type="text/css">
	.st0{opacity:0.1;fill:#3C3B3B;}
</style>
<path class="st0" d="M180.69,228.15c-9.46,0-18.93-0.2-28.38,0.06c-7.25,0.2-12.37-2.29-14.75-9.46c-0.53-1.61-0.91-3.65-3.24-3.59
	c-2.4,0.06-2.38,2.29-2.97,3.82c-2.41,6.31-6.82,9.23-13.67,9.18c-19.8-0.15-39.61,0-59.41-0.07c-9.84-0.04-13.97-4.27-14.22-14.05
	c-0.48-18.61-0.25-37.22-0.28-55.83c-0.02-11.13-0.85-22.23,0.15-33.39c0.37-4.17,1.03-7.46,4.46-10.33
	c8.97-7.52,13.08-17.36,12.94-29.09c-0.14-11.66,0.11-23.33-0.08-34.99c-0.09-5.3,2.11-7.77,7.36-7.75
	c9.46,0.03,18.92-0.01,28.38,0.01c2.74,0.01,4.95,0.9,6.93,3.09c14.9,16.41,47.09,16.79,61.49-0.47c1.77-2.12,4.01-2.59,6.47-2.6
	c9.46-0.05,18.92,0.04,28.38-0.07c5.42-0.06,7.3,2.55,7.2,7.77c-0.21,11.44-0.05,22.88-0.06,34.33
	c-0.01,12.11,4.05,22.47,13.57,30.19c3.71,3.01,4.31,6.53,4.33,11.01c0.03,9.8,0.61,19.54-0.19,29.4
	c-1.11,13.68,1.77,27.43-0.26,41.23c-0.78,5.34,0.65,10.96,0.45,16.43c-0.4,10.88-4.88,15.06-15.58,15.12
	c-9.68,0.05-19.36,0.01-29.05,0.01C180.69,228.12,180.69,228.13,180.69,228.15z M82.92,50.72c-2.2,0-4.43,0.22-6.6-0.04
	c-6.24-0.77-8.08,2.08-7.74,8c0.42,7.24,0.11,14.52,0.09,21.78c-0.02,6.81,0.37,13.61-2.01,20.23c-2.66,7.42-6.69,13.84-12.57,19.07
	c-2.42,2.15-3.26,4.73-2.14,7.7c1.11,2.94,3.76,3.55,6.54,3.37c6.69-0.44,13.24,0.42,20.09-1.95c6.14-2.12,13.59-2.15,20.05,0.45
	c6.71,2.7,13.79,2.49,20.1,1.11c10.11-2.22,4.36-11.57,5.8-17.74c0.29-1.25-0.01-2.63,0.02-3.95c0.06-2.39-0.75-4.16-2.92-5.46
	c-15.32-9.16-21.21-24.07-24.27-40.53C95.13,50.75,95.32,50.72,82.92,50.72z M200.04,73.83c0-1.98,0-3.96,0-5.94
	c0-17.19,0-17.19-16.95-17.17c-10.27,0.01-9.99,0.05-11.46,10.42c-2.14,15.18-6.98,29.42-19.86,38.88
	c-5.31,3.9-7.69,7.81-6.92,14.11c0.31,2.6,0.01,5.28,0.07,7.92c0.19,7.57,1.43,8.05,8.95,9c9.43,1.2,17.98-3.08,27.2-3.08
	c9.43,0,18.25,4.69,27.85,2.98c3-0.54,6.42,0.19,7.84-3.46c1.39-3.57-0.05-6.24-2.88-8.65c-4.07-3.47-6.77-8.03-9.31-12.71
	C199.03,95.9,200.02,84.81,200.04,73.83z M164.94,56.87c-10.19,5.22-19.26,8.72-29.44,8.76c-10.21,0.04-19.55-2.41-28.28-7.57
	c-1.99-1.17-3.06-0.12-2.63,1.92c3.17,15.06,6.86,29.92,22.46,37.41c3.52,1.69,4.9,3.9,4.96,7.61c0.21,12.22-1.07,24.5,1.09,36.64
	c0.91,5.12-1.86,9.68-1.49,14.89c0.72,10.2,0.41,20.47,1.39,30.69c0.48,4.96-2.76,9.72-1.06,14.86c0.57,1.74-0.5,4.54,2.27,4.75
	c2.91,0.21,2.32-2.56,2.65-4.38c1.39-7.65-1.73-15.3-0.25-22.87c1.75-8.93,0.98-18.06,0.54-26.78c-0.77-15.54,0.77-31.03-0.31-46.52
	c-0.31-4.46,1.64-7.09,5.75-9.25C158.2,88.79,161.76,73.76,164.94,56.87z M88.1,220.76c7.04,0,14.08,0,21.12,0
	c15.64,0,15.79-0.15,15.36-15.73c-0.21-7.41-1.56-8.56-9-8.93c-7.51-0.37-14.67,0.89-21.94,2.72c-8.77,2.2-17.13-2.54-25.82-2.64
	c-17.25-0.2-17.14-0.11-16.45,17.14c0.21,5.34,2.51,7.52,7.71,7.46C68.75,220.66,78.43,220.74,88.1,220.76z M180.56,220.72
	c0,0.01,0,0.02,0,0.04c7.04,0,14.09,0,21.13,0c16.08,0,15.9,0,15.76-15.97c-0.05-6.12-2.25-8.7-8.55-8.76
	c-7.5-0.08-14.67,0.96-21.93,2.8c-8.78,2.22-17.13-2.57-25.82-2.65c-16.85-0.17-17.18,0.4-16.27,17.46
	c0.26,4.97,2.31,7.19,7.28,7.13C161.63,220.64,171.1,220.72,180.56,220.72z M110.24,174.54c2.04,0,3.81-0.13,5.55,0.02
	c6.3,0.57,8.87-2.59,8.76-8.55c-0.05-2.63,0.09-5.29-0.17-7.9c-0.26-2.53-1.4-5.05-4.19-5.22c-6.96-0.4-14.07-1.71-20.83,0.91
	c-6.87,2.66-14.3,2.84-20.62,0.68c-7.28-2.49-14.26-1.59-21.38-1.85c-3.62-0.13-5.69,2-5.84,5.71c-0.1,2.41-0.12,4.83-0.09,7.25
	c0.11,7.73,1.17,8.46,8.77,9.03c7.99,0.61,15.53-1.31,23.19-2.91C92.72,169.79,101.29,175.45,110.24,174.54z M203.38,174.54
	c2.11,0,3.87-0.1,5.62,0.02c5.79,0.38,8.73-2.08,8.35-8.08c-0.1-1.53,0.01-3.07-0.01-4.61c-0.12-8.26-1.32-8.65-9.7-9.55
	c-9.63-1.03-18.29,3.71-27.79,3.2c-8.69-0.46-16.81-4.25-25.81-3.2c-8.19,0.95-9.01,1-9.14,9.2c-0.02,1.32-0.02,2.64,0,3.95
	c0.13,8.04,1.1,8.49,9.22,9.2c8.05,0.71,15.5-1.67,23.16-3.03C186.45,170.01,194.71,175.62,203.38,174.54z M63.19,138.32
	c-3.06,0-6.11-0.04-9.17,0.01c-1.9,0.03-3.57,0.59-3.56,2.89c0.01,2.22,1.61,3.03,3.51,3.05c5.89,0.08,11.78,0.09,17.67,0.03
	c2.12-0.02,4.03-0.7,3.86-3.35c-0.14-2.33-1.99-2.6-3.81-2.63C68.87,138.28,66.03,138.31,63.19,138.32z M112.68,138.35
	c0,0.01,0,0.03,0,0.04c-3.08,0-6.16-0.07-9.23,0.03c-1.74,0.05-2.93,0.96-2.9,2.87c0.02,1.5,0.92,2.71,2.33,2.75
	c6.36,0.15,12.73,0.18,19.08,0.05c1.7-0.03,2.75-1.34,2.57-3.2c-0.19-1.96-1.65-2.47-3.28-2.51
	C118.4,138.3,115.54,138.35,112.68,138.35z M156.56,138.37c-3.08,0-6.16-0.04-9.24,0.02c-1.69,0.03-3.05,0.7-3.15,2.64
	c-0.09,1.84,0.98,3.06,2.71,3.09c6.15,0.12,12.31,0.12,18.46,0.02c1.71-0.03,2.89-1.16,2.86-2.99c-0.04-1.9-1.34-2.7-3.06-2.75
	C162.28,138.33,159.42,138.38,156.56,138.37z M206.68,138.45c0-0.03,0-0.05,0-0.08c-3.05,0-6.1-0.05-9.15,0.02
	c-1.61,0.04-3.08,0.52-3.31,2.45c-0.22,1.85,0.89,3.13,2.53,3.18c6.3,0.18,12.61,0.2,18.91,0.08c1.69-0.03,2.66-1.37,2.62-3.17
	c-0.04-2.05-1.43-2.47-3.11-2.47C212.34,138.45,209.51,138.45,206.68,138.45z"/>
</svg>
