<?xml version="1.0" encoding="utf-8"?>
<!-- Generator: Adobe Illustrator 26.3.1, SVG Export Plug-In . SVG Version: 6.00 Build 0)  -->
<svg version="1.1" id="Capa_1" xmlns="http://www.w3.org/2000/svg" xmlns:xlink="http://www.w3.org/1999/xlink" x="0px" y="0px"
	 viewBox="0 0 270 270" style="enable-background:new 0 0 270 270;" xml:space="preserve">
<style type="text/css">
	.st0{fill:#861E39;}
</style>
<g>
	<path class="st0" d="M134.15,251.67c-12.83,0-25.67-0.08-38.5,0.04c-5.11,0.05-7.03-2.48-6.92-7.24c0.08-3.48,0.01-6.96,0.06-10.44
		c0.03-1.98,0.12-4.74,1.86-5.29c7.87-2.46,6.11-9.35,6.59-14.59c3.43-37.65,6.46-75.34,9.62-113.02c0.33-3.9,0.83-7.78,1.13-11.68
		c0.22-2.83,0.3-5.63-2.22-7.79c-1.61-1.38-1.63-3.48-1.64-5.46c-0.01-9.36,0.1-18.71-0.07-28.07c-0.07-3.69,1.62-6.11,4.29-8.28
		c7.26-5.9,14.54-11.78,21.61-17.89c3.49-3.02,6.37-2.78,9.74,0.1c7.27,6.23,14.63,12.35,22.09,18.34c3.02,2.43,4.1,5.36,4.05,9.09
		c-0.1,8.27,0.02,16.54-0.07,24.8c-0.02,1.93,0.17,4.74-0.94,5.62c-5.5,4.34-3.27,9.72-2.81,14.99
		c3.63,41.34,7.21,82.69,10.82,124.04c0.32,3.7,0.55,7.25,5.06,8.88c3.26,1.18,2.63,4.64,2.69,7.42
		c0.34,16.78,0.34,16.78-16.44,16.78c-10.01,0-20.02,0-30.03,0C134.15,251.91,134.15,251.79,134.15,251.67z M104.65,217.7
		c0.7,2.89-2.27,7.09,0.7,8.49c4.45,2.1,9.93,1.59,14.67,0.31c3.82-1.03,2.22-5.23,2.17-8.02c-0.12-6.56,1.92-11.53,8.49-13.78
		c9.33-3.19,17.17,3.09,17.01,14.32c-0.09,6.23,1.83,8.92,8.14,8.07c1.71-0.23,3.47-0.11,5.21-0.07c3.37,0.07,4.74-1.68,4.47-4.88
		c-0.64-7.78-1.3-15.56-1.99-23.34c-0.29-3.24-1.74-5.08-5.39-5.05c-15.64,0.11-31.28,0.09-46.92,0.01
		c-3.64-0.02-4.91,1.61-5.08,5.1C105.83,205.15,105.16,211.41,104.65,217.7z M110.15,155.55c-2.05,6.55,1.61,9.43,8.12,11.19
		c10.86,2.94,21.53,6.61,32.3,9.92c11.98,3.68,11.43,3.7,10.43-9.06c-0.54-6.9-3.4-9.68-9.63-11.4
		c-11.27-3.1-22.39-6.78-33.47-10.52c-5.34-1.8-7.88-0.46-7.75,5.29C110.18,152.29,110.15,153.59,110.15,155.55z M159.04,144.94
		c-0.18-1.72-0.6-3.45-0.51-5.16c0.36-7.63-3.67-11-10.74-12.61c-7.15-1.64-14.09-4.24-21.11-6.47c-12.9-4.11-12.63-4.08-14.64,9.3
		c-0.71,4.75,0.73,6.66,5,7.93c12.24,3.64,24.45,7.43,36.58,11.44C158.29,150.9,159.64,149.42,159.04,144.94z M156.44,115.79
		c-0.25-1.93-0.83-3.89-0.69-5.79c0.54-7.27-3.32-10.31-9.92-11.76c-5.9-1.3-11.61-3.49-17.4-5.32c-12.98-4.09-12.86-4.09-14.3,9.56
		c-0.5,4.69,0.87,7.08,5.64,8.39c10.23,2.82,20.36,6.05,30.4,9.47C154.97,121.98,157.38,121.54,156.44,115.79z M135.85,234.37
		c-11.07,0-22.13,0.04-33.2-0.02c-3.44-0.02-5.95,0.55-5.91,4.89c0.04,4.32,2.62,4.85,6.02,4.84c21.7-0.04,43.4-0.06,65.09,0.01
		c3.75,0.01,5.58-1.25,5.5-5.3c-0.08-4.08-2.49-4.44-5.61-4.43C157.11,234.4,146.48,234.38,135.85,234.37z M134.64,75.44
		c5.86,0,11.71-0.05,17.57,0.02c3.16,0.04,5.54-0.49,5.64-4.47c0.1-3.91-1.6-5.47-5.42-5.45c-11.93,0.08-23.86,0.06-35.79,0.01
		c-3.39-0.01-5.17,1.13-5.25,4.9c-0.08,4.25,2.1,5.11,5.69,5.04C122.93,75.36,128.79,75.46,134.64,75.44z M153.74,186.45
		c0.06-0.29,0.11-0.57,0.17-0.86c-13.11-4.13-26.21-8.31-39.34-12.35c-1.7-0.52-4.19-2.25-5.27,0c-1.57,3.28-2.12,7.06-1.53,10.76
		c0.41,2.57,2.71,2.44,4.64,2.44C126.19,186.47,139.97,186.45,153.74,186.45z M118.83,41.16c11.02,0,20.81,0,30.88,0
		c-10.72-14.31-14.1-14.76-26.6-3.84C121.99,38.3,120.89,39.31,118.83,41.16z M124.38,82.79c-0.06,0.3-0.13,0.6-0.19,0.9
		c7.92,2.5,15.84,5.05,23.78,7.47c1.71,0.52,3.99,2.15,5.17-0.24c0.77-1.56,0.57-3.81,0.27-5.66c-0.41-2.52-2.67-2.45-4.62-2.46
		C140.65,82.78,132.51,82.79,124.38,82.79z M129.61,217.77c0,5.5-0.69,9.31,5.14,9.36c4.66,0.04,6.11-1.89,5.81-6.19
		c-0.28-4.13,0.15-8.74-5.73-9C129.36,211.71,129.63,215.88,129.61,217.77z"/>
</g>
</svg>
