<?xml version="1.0" encoding="utf-8"?>
<!-- Generator: Adobe Illustrator 26.3.1, SVG Export Plug-In . SVG Version: 6.00 Build 0)  -->
<svg version="1.1" id="Capa_1" xmlns="http://www.w3.org/2000/svg" xmlns:xlink="http://www.w3.org/1999/xlink" x="0px" y="0px"
	 viewBox="0 0 270 270" style="enable-background:new 0 0 270 270;" xml:space="preserve">
<style type="text/css">
	.st0{fill:#861E39;}
</style>
<g>
	<path class="st0" d="M189.5,221.43c-39.55-1.19-80.78-0.5-122.01-0.56c-5.38-0.01-7.44-1.48-7.16-7.08
		c1.39-28.14,12.11-50.34,39.04-62.38c3.4-1.52,4.08-3.23,2.45-6.56c-0.97-1.98-1.42-4.39-1.45-6.61c-0.06-3.63-1.08-6.24-4.04-8.76
		c-3.97-3.37-4.32-7.99-2.48-13.03c3.02-8.24,4.29-16.42-2.75-23.69c-2.23-2.3-3.66-5.3-4.42-8.52c-1.7-7.14-0.1-10.71,6.5-13.81
		c2.4-1.13,4.87-2.26,7.43-2.85c5.54-1.27,9.97-4.04,14.22-7.83c10.81-9.64,27.97-10.23,38.77-0.99c5.37,4.6,11.15,7.48,17.74,9.62
		c13.72,4.47,16.48,13.21,7.14,24.4c-6.33,7.58-5.55,15.2-2.78,23.26c2.02,5.88,1.52,10.34-3.26,14.33c-2.13,1.78-3.16,3.57-3,6.27
		c0.09,1.5-0.26,3.02-0.33,4.53c-0.15,2.95-3.85,5.67-1.78,8.34c1.57,2.02,4.91,2.64,7.44,3.94c25.69,13.19,34.99,39.65,34.63,63.51
		c-0.05,3.22-1.63,4.44-4.56,4.45C200.29,221.45,195.73,221.43,189.5,221.43z M173.72,160.38c0.43,12.85,0.43,12.85-11.68,13.18
		c3.75,4.41,1.33,7.54-1.56,10.94c-6.74,7.95-13.23,16.12-19.8,24.21c-1.05,1.29-2.58,2.56-1.53,4.47c0.89,1.61,2.66,1.23,4.12,1.23
		c18.39,0.04,36.78,0.01,55.17,0.09c3.49,0.01,4.9-1.4,4.3-4.85c-0.77-4.48-1.17-9.05-2.3-13.43
		C196.53,180.94,188.41,168.71,173.72,160.38z M95.9,160.67c-1.18,0.5-1.92,0.69-2.52,1.09c-17.4,11.61-24.48,28.82-26.44,48.8
		c-0.36,3.71,2.15,3.83,4.8,3.83c18.24,0,36.48,0.03,54.72,0.01c1.46,0,3.22,0.38,4.15-1.19c1.13-1.91-0.41-3.2-1.46-4.48
		c-6.24-7.65-12.52-15.28-18.77-22.93c-1.56-1.91-3.12-3.82-4.54-5.82c-1.73-2.45,1.99-4.26,1.21-6.72
		C95.75,174.46,95.75,174.46,95.9,160.67z M176.78,81.29c0.36-3.69-2.13-5.16-4.98-5.95c-8.88-2.47-16.73-6.36-23.81-12.63
		c-6.91-6.12-20.72-5.33-27.62,0.96c-5.8,5.29-12.24,8.62-19.68,10.81c-8.91,2.62-10.13,8-4.15,15.08c1.51,1.79,2.67,2.21,4.71,0.73
		c5.84-4.21,12.59-6.14,19.63-7.06c3.01-0.39,3.84-1.11,2.58-4.33c-2.27-5.79-0.51-11.31,3.95-14.75
		c4.37-3.37,10.29-3.38,14.85-0.04c4.48,3.28,6.18,8.61,3.99,14.72c-1.12,3.13-0.49,3.99,2.6,4.38c7.04,0.9,13.74,2.91,19.65,7.04
		c1.32,0.92,2.6,1.81,3.94,0.14C174.6,87.7,176.45,84.85,176.78,81.29z M107.18,133.49c-1.35,10.08,3.27,16.33,18.98,25.22
		c10.52,5.96,18.28-0.22,26.27-6.02c7.73-5.61,12.76-12.72,9.82-19.42c-7.24,6.49-10.35,6.63-18.39,0.86
		c-5.08-3.65-12.49-3.87-17.18-0.53C117.9,139.85,115.84,139.84,107.18,133.49z M106.86,108.85c-0.52,6.56,1.68,11.8,4.23,16.88
		c3.27,6.51,5.53,6.94,11.45,2.86c2.45-1.69,4.5-4.62,7.77-4.32c6.31,0.56,13.16-0.76,18.15,5.15c1.77,2.1,4.59,2.69,7.21,0.73
		c4.12-3.08,7.96-15.79,6.42-21.01C143.88,120.17,125.66,120.12,106.86,108.85z M111.98,103.31c8.7,9.03,32.22,9.35,42.18,2.82
		c0.93-0.61,2.25-1.1,2.06-2.43c-0.2-1.35-1.6-1.34-2.67-1.66c-5.34-1.6-10.92-1.66-16.35-1.84
		C128.94,99.92,120.61,100.48,111.98,103.31z M166.96,99.18c-7.15-14.42-60.05-13.24-63.78-0.09
		C124.3,91.63,145.26,91.65,166.96,99.18z M107.88,166.49c2.17-1.27,7.01,1.21,7.13-3.54c0.1-3.87-2.18-7.69-6.73-7.77
		c-5.5-0.09-4.98,4.54-5.32,8.26C102.59,167.35,105.38,166.37,107.88,166.49z M166.68,162.61c-0.18-5.53-1.97-7.87-5.64-7.58
		c-2.96,0.23-7.45,5.38-6.42,8.27c1.4,3.95,5.6,2.5,8.65,3.1C166.48,167.04,167.27,165.22,166.68,162.61z M140.46,74.11
		c-0.26-3.45-2-5.87-5.54-5.95c-3.6-0.08-5.5,2.3-5.57,5.82c-0.07,3.57,1.7,5.75,5.45,5.8C138.54,79.83,140.27,77.74,140.46,74.11z"
		/>
	<path class="st0" d="M134.73,145.12c-2.07-0.1-4.15-0.12-6.2-0.33c-1.95-0.19-3.04-1.26-2.97-3.37c0.08-2.11,1.27-3.13,3.2-3.18
		c3.95-0.11,7.91-0.12,11.86-0.05c2.12,0.04,3.6,0.96,3.56,3.42c-0.04,2.17-1.4,2.97-3.25,3.16
		C138.87,144.97,136.8,145.01,134.73,145.12z"/>
</g>
</svg>
