<?xml version="1.0" encoding="utf-8"?>
<!-- Generator: Adobe Illustrator 26.3.1, SVG Export Plug-In . SVG Version: 6.00 Build 0)  -->
<svg version="1.1" id="Capa_1" xmlns="http://www.w3.org/2000/svg" xmlns:xlink="http://www.w3.org/1999/xlink" x="0px" y="0px"
	 viewBox="0 0 75 75" style="enable-background:new 0 0 75 75;" xml:space="preserve">
<style type="text/css">
	.st0{fill:#FFFFFF;}
</style>
<g>
	<g>
		<path class="st0" d="M46.53,47.6c7.4,0,14.79,0,22.19,0c2.44,0,3.78,1.35,3.78,3.79c0,5.8,0,11.6,0,17.4c0,2.33-1.38,3.7-3.73,3.7
			c-14.84,0-29.67,0-44.51,0c-2.33,0-3.69-1.38-3.7-3.73c0-0.77-0.03-1.55,0.01-2.32c0.03-0.58-0.2-0.72-0.74-0.72
			c-2.09,0.02-4.18,0.02-6.27,0.01C7.61,65.69,2.65,60.64,2.5,54.7c-0.13-5.39,3.77-10.72,9.92-11.55c0.51-0.07,1.03-0.05,1.55-0.05
			c5.05,0,10.09,0,15.14,0c0.61,0,1.18-0.06,1.47-0.72c0.12-0.28,0.15-0.53-0.16-0.73c-0.75-0.48-1.12-1.22-1.23-2.05
			c-0.21-1.59-0.89-2.52-2.5-3.25c-3.85-1.73-5.88-4.96-6.27-9.17c-0.15-1.61-0.22-3.23-0.27-4.85c-0.02-0.6-0.22-0.9-0.83-0.98
			c-0.63-0.09-1.25-0.22-1.86-0.39c-1.56-0.43-2.53-1.7-2.54-3.32c-0.01-1.81-0.01-3.62,0-5.42c0.01-1.58,0.93-2.95,2.47-3.28
			c1.4-0.3,2.13-0.88,2.67-2.32c1.01-2.66,3.2-4.05,6.1-4.08c3.8-0.04,7.61-0.02,11.41-0.01c3.77,0.01,6.81,3.02,6.72,6.77
			c-0.08,3.35-0.34,6.7-0.52,10.05c-0.11,2.06-0.25,4.12-0.31,6.18c-0.07,3.02-0.8,5.8-2.81,8.14c-1.3,1.51-2.9,2.6-4.78,3.24
			c-0.54,0.18-0.8,0.46-0.9,1.01c-0.12,0.67-0.31,1.32-0.5,1.98c-0.09,0.31-0.16,0.7-0.37,0.9c-0.77,0.7-1.02,1.63-1.36,2.56
			c-0.5,1.39-1.65,2.07-3.13,2.08c-4.95,0.01-9.91,0.01-14.86,0c-1.44,0-2.85,0.12-4.21,0.67c-3.37,1.35-5.69,4.66-5.65,8.28
			c0.05,5.19,4.09,8.56,7.99,8.89c2.37,0.2,4.74,0.04,7.11,0.11c0.58,0.02,0.56-0.33,0.56-0.74c0-3.76,0-7.51,0-11.27
			c0-2.45,1.33-3.78,3.79-3.78C31.74,47.6,39.14,47.6,46.53,47.6z M40.16,49.95c-5.23,0-10.47,0-15.7,0c-1.14,0-1.54,0.4-1.54,1.52
			c-0.01,1.57,0,3.14,0,4.72c0,2.16,0,4.32,0,6.48c0,0.26-0.11,0.65,0.3,0.68c0.61,0.05,1.22,0.06,1.83,0
			c0.43-0.04,0.47-0.54,0.69-0.83c0.87-1.18,2.41-1.69,3.83-1.24c1.45,0.46,2.38,1.75,2.37,3.3c-0.01,1.54-0.94,2.8-2.42,3.27
			c-1.4,0.44-3.02-0.06-3.78-1.31c-0.4-0.67-0.86-0.91-1.58-0.81c-0.23,0.03-0.47,0.02-0.7,0c-0.4-0.02-0.54,0.17-0.53,0.55
			c0.01,0.73,0,1.45,0,2.18c0,1.31,0.36,1.68,1.67,1.68c10.4,0,20.79-0.01,31.19,0.02c0.69,0,0.87-0.21,0.86-0.88
			c-0.02-6.15-0.03-12.3,0-18.45c0-0.73-0.23-0.9-0.92-0.89C50.53,49.97,45.34,49.95,40.16,49.95z M40.94,24.79
			c0.2-0.13,0.18-0.28,0.19-0.42c0.1-1.78,0.2-3.56,0.29-5.34c0.16-3.02,0.2-6.05,0.5-9.06c0.24-2.44-1.35-5.03-4.47-5.08
			c-3.71-0.06-7.42-0.07-11.12,0c-3.05,0.06-4.57,2.4-4.49,4.66c0.04,1.29,0.16,2.57,0.23,3.86c0.15,2.88,0.3,5.76,0.45,8.64
			c0.05,0.9,0.12,1.8,0.2,2.86c2.5-2.81,5.45-4.36,9.13-4.37C35.54,20.54,38.52,22.07,40.94,24.79z M32.12,35.2
			c3.47-0.13,6.25-1.71,7.98-5.03c0.5-0.96,0.64-1.84-0.19-2.69c-0.24-0.25-0.4-0.58-0.62-0.86c-2.43-3.02-5.57-4.19-9.37-3.46
			c-2.83,0.54-4.82,2.28-6.33,4.66c-0.39,0.61-0.44,1.11-0.19,1.76C24.7,32.98,28.06,35.22,32.12,35.2z M58.98,62.26
			c0,2.37,0.01,4.74-0.01,7.11c-0.01,0.56,0.13,0.79,0.74,0.78c2.98-0.03,5.96-0.01,8.94-0.02c1.08,0,1.49-0.41,1.49-1.5
			c0.01-4.48,0-8.97,0.01-13.45c0-0.54-0.14-0.74-0.71-0.74c-3.24,0.02-6.48,0.02-9.72,0c-0.59,0-0.77,0.19-0.76,0.77
			C58.99,57.56,58.98,59.91,58.98,62.26z M17.28,14.93c0,0.82-0.02,1.64,0,2.46c0.02,0.78,0.34,1.15,1.1,1.32
			c0.3,0.07,0.6,0.09,0.89,0.17c0.48,0.13,0.63-0.04,0.6-0.52c-0.08-1.38-0.13-2.76-0.2-4.14c-0.05-0.91-0.1-1.82-0.18-2.73
			c-0.02-0.21,0-0.49-0.33-0.54c-0.98-0.15-1.88,0.59-1.9,1.59C17.27,13.34,17.28,14.14,17.28,14.93z M65.64,51.06
			c0-1.1,0-1.1-0.96-1.1c-1.19,0-1.19,0-1.19,1.02c0,1.14,0,1.14,1,1.14C65.64,52.11,65.64,52.11,65.64,51.06z M61.13,51.09
			c0-1.14,0-1.14-1-1.14c-1.16,0-1.16,0-1.16,0.98c0,1.17,0,1.17,1.03,1.18C61.13,52.11,61.13,52.11,61.13,51.09z M67.99,50.97
			c0,1.14,0,1.17,0.99,1.13c0.47-0.02,1.22,0.35,1.17-0.68c-0.04-1.01-0.46-1.42-1.47-1.48C67.8,49.89,68.02,50.49,67.99,50.97z
			 M28.5,63.51c-0.53,0-1.04,0.51-1.04,1.04c0,0.53,0.51,1.04,1.04,1.04c0.53,0,1.04-0.51,1.04-1.04
			C29.54,64.02,29.03,63.51,28.5,63.51z M31.83,37.56c-0.23,0.04-0.64-0.12-0.56,0.36c0.08,0.48,0.23,0.95,0.36,1.42
			c0.03,0.12,0.11,0.21,0.24,0.21c0.14,0,0.21-0.09,0.25-0.21c0.1-0.36,0.17-0.72,0.29-1.07C32.62,37.69,32.44,37.47,31.83,37.56z"
			/>
		<path class="st0" d="M56.73,17.22c-0.01,3.2-1.13,5.95-3.28,8.3c-0.38,0.41-0.62,0.41-1.01,0.01c-1.1-1.14-1.12-1.12-0.13-2.38
			c2.79-3.57,2.67-8.7-0.26-12.16c-0.85-1-0.89-0.73,0.06-1.69c0.88-0.9,0.7-1.12,1.71,0.05C55.75,11.6,56.74,14.23,56.73,17.22z"/>
		<path class="st0" d="M51.09,17.55c0.02,1.71-0.86,3.31-2.21,4.7c-0.37,0.38-0.67,0.37-0.95-0.08c-0.04-0.06-0.09-0.11-0.13-0.16
			c-0.86-1.03-0.86-1.03-0.05-2.1c1.35-1.79,1.28-4.08-0.3-5.7c-0.53-0.55-0.46-0.87-0.02-1.38c1.02-1.18,1-1.19,2.02-0.02
			C50.55,14.1,51.11,15.57,51.09,17.55z"/>
		<path class="st0" d="M33.01,58.97c-2.37,0-4.74-0.02-7.11,0.01c-0.64,0.01-0.86-0.19-0.84-0.84c0.04-1.76,0.03-3.52,0-5.28
			c-0.01-0.58,0.19-0.77,0.77-0.77c4.79,0.02,9.57,0.02,14.36,0c0.58,0,0.78,0.18,0.77,0.76c-0.03,1.78-0.03,3.57,0,5.35
			c0.01,0.58-0.19,0.77-0.77,0.77C37.79,58.95,35.4,58.97,33.01,58.97z M33.08,54.46c-1.43,0-2.86-0.01-4.3,0
			c-1.54,0.01-1.32-0.22-1.37,1.41c-0.02,0.6,0.2,0.76,0.77,0.75c2.98-0.02,5.96,0,8.95-0.01c1.66-0.01,1.43,0.29,1.47-1.51
			c0.01-0.5-0.18-0.65-0.66-0.64C36.32,54.47,34.7,54.46,33.08,54.46z"/>
		<path class="st0" d="M48.76,56.62c3.19,0,5.7,2.47,5.71,5.64c0.01,3.23-2.48,5.73-5.69,5.72c-3.18,0-5.67-2.5-5.67-5.68
			C43.1,59.12,45.58,56.62,48.76,56.62z M48.74,62.25c0.12,0,0.24,0.01,0.35,0c0.67-0.09,0.94,0.17,0.88,0.86
			c-0.05,0.51-0.02,1.03,0,1.55c0.01,0.19-0.11,0.46,0.14,0.56c0.18,0.07,0.35-0.1,0.5-0.2c1.38-0.87,1.87-2.72,1.12-4.21
			c-0.76-1.51-2.53-2.19-4.13-1.57c-1.31,0.51-2.02,1.54-2.1,2.9c-0.07,1.22,0.46,2.22,1.51,2.91c0.39,0.26,0.64,0.29,0.61-0.31
			c-0.02-0.44,0-0.89,0-1.34C47.61,62.25,47.61,62.25,48.74,62.25z"/>
		<path class="st0" d="M37.49,67.98c-1.94-0.01-3.41-1.5-3.4-3.45c0.01-1.94,1.5-3.41,3.45-3.4c1.94,0.01,3.41,1.5,3.41,3.45
			C40.94,66.51,39.44,67.99,37.49,67.98z M37.5,63.51c-0.53,0.01-1.04,0.53-1.03,1.06c0.01,0.53,0.53,1.04,1.06,1.03
			c0.53-0.01,1.04-0.53,1.03-1.06C38.54,64,38.03,63.5,37.5,63.51z"/>
		<path class="st0" d="M48.75,54.46c-1.64,0-3.28-0.02-4.92,0.01c-0.54,0.01-0.75-0.16-0.74-0.72c0.05-1.94-0.21-1.62,1.57-1.63
			c2.98-0.02,5.96,0.01,8.93-0.02c0.67-0.01,0.91,0.18,0.88,0.87c-0.06,1.73,0.19,1.48-1.51,1.49
			C51.57,54.47,50.16,54.46,48.75,54.46z"/>
		<path class="st0" d="M31.87,13.89c-1.81,0-3.61,0.01-5.42,0c-1.6-0.01-2.5-0.89-2.51-2.47c0-0.73-0.02-1.46,0.01-2.18
			c0.04-1.24,0.96-2.19,2.2-2.2c3.82-0.02,7.65-0.02,11.47,0c1.23,0.01,2.16,0.97,2.19,2.21c0.02,0.8,0.02,1.6,0,2.39
			c-0.03,1.27-0.97,2.22-2.24,2.24C35.67,13.9,33.77,13.89,31.87,13.89z M31.81,11.54c1.43,0,2.86,0.01,4.3,0
			c1.54-0.01,1.32,0.22,1.37-1.41c0.02-0.6-0.2-0.76-0.77-0.75c-2.98,0.02-5.96,0-8.95,0.01c-1.66,0.01-1.43-0.29-1.47,1.51
			c-0.01,0.5,0.18,0.65,0.66,0.64C28.57,11.52,30.19,11.54,31.81,11.54z"/>
		<path class="st0" d="M39.82,17.24c0,1.15,0,1.16-1.2,1.15c-1.29,0-1.14,0.09-1.15-1.27c-0.01-1.08,0-1.08,1.27-1.08
			C39.82,16.05,39.82,16.05,39.82,17.24z"/>
		<path class="st0" d="M34.2,16.04c1.11,0,1.11,0,1.11,1.24c0,1.11,0,1.11-1.24,1.11c-1.11,0-1.11,0-1.11-1.24
			C32.96,16.04,32.96,16.04,34.2,16.04z"/>
		<path class="st0" d="M30.8,17.17c-0.01,1.33,0.11,1.22-1.2,1.23c-1.16,0-1.16,0-1.16-1.19c0-1.16,0-1.16,1.2-1.16
			C30.8,16.04,30.8,16.04,30.8,17.17z"/>
		<path class="st0" d="M23.94,17.16c0-1.11,0-1.11,1.24-1.11c1.11,0,1.11,0,1.11,1.24c0,1.11,0,1.11-1.24,1.11
			C23.94,18.4,23.94,18.4,23.94,17.16z"/>
		<path class="st0" d="M64.56,56.62c1.94,0,3.43,1.49,3.42,3.43c0,1.94-1.49,3.43-3.43,3.43c-1.94,0-3.42-1.49-3.42-3.43
			C61.13,58.09,62.61,56.62,64.56,56.62z M64.56,61.09c0.53,0,1.04-0.51,1.04-1.04c0-0.53-0.51-1.04-1.04-1.04
			c-0.53,0-1.04,0.51-1.04,1.04C63.52,60.58,64.03,61.09,64.56,61.09z"/>
		<path class="st0" d="M62.34,65.63c1.14,0,1.15,0,1.14,1.21c-0.01,1.28,0.09,1.13-1.28,1.14c-1.07,0.01-1.07,0-1.07-1.28
			C61.13,65.63,61.13,65.63,62.34,65.63z"/>
		<path class="st0" d="M67.99,66.84c0,1.15,0,1.15-1.21,1.15c-1.28-0.01-1.14,0.09-1.15-1.27c-0.01-1.08,0-1.08,1.27-1.08
			C67.99,65.63,67.99,65.63,67.99,66.84z"/>
	</g>
</g>
</svg>
