<?xml version="1.0" encoding="utf-8"?>
<!-- Generator: Adobe Illustrator 26.3.1, SVG Export Plug-In . SVG Version: 6.00 Build 0)  -->
<svg version="1.1" id="Capa_1" xmlns="http://www.w3.org/2000/svg" xmlns:xlink="http://www.w3.org/1999/xlink" x="0px" y="0px"
	 viewBox="0 0 75 75" style="enable-background:new 0 0 75 75;" xml:space="preserve">
<style type="text/css">
	.st0{fill:#FFFFFF;}
</style>
<path class="st0" d="M42.17,33.18c0.46,0.58,1.13,0.3,1.7,0.3c6.32,0.02,12.65,0,18.97,0.03c0.76,0,1.74-0.33,2.16,0.59
	c0.46,1-0.51,1.53-1.05,2.13c-1.63,1.82-3.32,3.61-4.97,5.41c-0.22,0.24-0.6,0.47-0.41,0.85c0.18,0.36,0.59,0.25,0.92,0.25
	c1.05,0,1.82-0.54,2.52-1.27c1.42-1.49,1.57-1.49,3.04,0.07c0.57,0.61,1.24,1,2.04,1.17c0.75,0.16,1.12,0.58,0.89,1.34
	c-0.23,0.75-1.03,0.77-1.41,0.49c-2.15-1.61-4.13-0.93-6.32,0.01c-1.42,0.6-3.06,0.14-4.35-0.88c-0.71-0.56-1.24-0.68-2.08-0.07
	c-2.17,1.55-4.49,1.53-6.68,0.01c-0.74-0.51-1.2-0.55-1.93-0.02c-2.18,1.56-4.47,1.56-6.69,0.07c-0.78-0.52-1.36-0.64-2.12-0.01
	c-0.47,0.39-1.07,0.66-1.66,0.84c-3.21,0.95-4.44,2.48-4.54,5.75c-0.01,0.17,0.04,0.37-0.02,0.51c-1.5,3.31-3.74,6.11-6.52,8.34
	c-1.37,1.1-6.45-3-6.22-4.84c0.03-0.27,0.11-0.59,0.27-0.8c1.77-2.3,3.55-4.6,5.37-6.86c0.53-0.66,1.41-0.67,2.18-0.87
	c0.86-0.22,1.8-0.38,2.18-1.64c-2.52,0.89-4.8,0.9-6.83-0.83c-0.54-0.46-0.95,0.03-1.36,0.31c-2.27,1.59-4.58,1.58-6.84,0.03
	c-0.73-0.5-1.28-0.55-1.96,0.04c-0.7,0.6-1.56,0.93-2.5,0.99c-0.51,0.03-0.91-0.12-1.01-0.68c-0.08-0.5,0.04-0.99,0.56-1.1
	c1.31-0.28,2.19-1.06,3.05-2.03c0.73-0.82,1.54-0.43,2.14,0.37c0.85,1.12,1.96,1.67,3.4,1.58c1.16-0.08,1.68-0.45,1.27-1.72
	c-0.58-1.79-1.08-3.6-1.57-5.41c-0.45-1.66-0.13-2.1,1.56-2.12c1.88-0.03,3.76-0.08,5.64,0.01c1.45,0.07,2.21-0.3,2.34-1.91
	c0.13-1.57,0.43-3.17,0.94-4.67c0.64-1.88,0.82-2.63,0.29-4.36c-0.71-2.3,0.25-4.79,2.34-6.06c2.14-1.3,4.65-1,6.43,0.77
	c1.84,1.82,2.27,4.46,0.78,6.54c-0.99,1.38-0.72,1.75,0.82,1.84c0.79,0.05,1.61,0.15,2.35,0.4c1.69,0.58,2.85,0.05,3.72-1.45
	c0.31-0.54,0.8-0.95,0.32-1.67c-0.37-0.55,0.08-0.97,0.46-1.31c0.46-0.41,0.85-0.05,1.2,0.23c1.25,0.99,2.5,1.98,3.74,2.98
	c0.37,0.3,0.7,0.64,0.38,1.16c-0.24,0.38-0.49,0.76-1.08,0.63c-1.69-0.35-2.1,1.11-2.24,2.08c-0.44,3.06-0.33,3.08-3.18,3.95
	C42.42,32.76,42.22,32.86,42.17,33.18z M61.84,35.66c-0.23-0.13-0.33-0.22-0.42-0.22c-6.78-0.01-13.55-0.02-20.33-0.02
	c-0.47,0-0.94,0.06-1.24,0.45c-1.63,2.04-3.25,4.1-4.87,6.16c0.48-0.04,0.74-0.25,0.97-0.5c1.39-1.52,1.59-1.53,3.05-0.03
	c1.75,1.8,4.05,1.75,5.79-0.22c0.92-1.04,1.64-1.2,2.63-0.07c1.91,2.17,4.23,2.17,6.15,0.02c0.72-0.81,1.41-1.19,2.29-0.36
	c0.5,0.47,0.89,0.4,1.3-0.05C58.71,39.11,60.26,37.4,61.84,35.66z M34.52,35.42c-5.48,0-10.48,0-15.48,0
	c-0.65,0-1.26,0.21-0.92,0.99c0.67,1.53,0.13,3.84,2.69,4.21c0.34,0.05,0.6,0.65,0.92,0.97c1.36,1.38,3.52,1.63,4.98,0.45
	c1.02-0.82,1.7-2.26,3.4-1.36c0.1,0.06,0.47-0.27,0.64-0.48C31.91,38.75,33.06,37.28,34.52,35.42z M30.18,26.48
	c-1.24-0.09-2,0.51-2.25,1.66c-0.29,1.33-0.49,2.69-0.7,4.03c-0.07,0.45-0.15,1.06,0.39,1.18c1.28,0.3,2.63,0.32,3.89,0.03
	c1.01-0.23,0.81-1.37,0.95-2.18c0.35-2.02,0.7-2.27,2.72-1.92c2.41,0.41,4.82,0.81,7.24,1.18c0.58,0.09,1.2,0.02,1.29-0.75
	c0.07-0.63-0.38-0.95-0.92-1.04C38.59,27.92,34.38,27.2,30.18,26.48z M26.2,47.92c-1.13-0.39-1.74,0.02-2.27,0.67
	c-0.85,1.06-1.69,2.14-2.54,3.2c-2.4,3-2.39,2.98,0.77,5.09c0.67,0.45,1.06,0.43,1.54-0.21c1.3-1.72,2.66-3.39,3.97-5.11
	c0.27-0.35,0.44-0.79,0.57-1.21c0.1-0.31,0.13-0.73-0.21-0.93c-0.4-0.23-0.62,0.17-0.82,0.41c-0.58,0.7-1.12,1.43-1.68,2.14
	c-0.36,0.46-0.74,0.91-1.4,0.43c-0.67-0.48-0.59-1.01-0.14-1.6C24.71,49.89,25.41,48.96,26.2,47.92z M31.65,24.34
	c1.91,0.01,3.38-1.4,3.41-3.28c0.02-1.77-1.58-3.39-3.36-3.4c-1.79-0.01-3.4,1.57-3.4,3.35C28.29,22.89,29.74,24.33,31.65,24.34z"/>
</svg>
