<?xml version="1.0" encoding="utf-8"?>
<!-- Generator: Adobe Illustrator 26.3.1, SVG Export Plug-In . SVG Version: 6.00 Build 0)  -->
<svg version="1.1" id="Capa_1" xmlns="http://www.w3.org/2000/svg" xmlns:xlink="http://www.w3.org/1999/xlink" x="0px" y="0px"
	 viewBox="0 0 46 26" style="enable-background:new 0 0 46 26;" xml:space="preserve">
<style type="text/css">
	.st0{fill:#3C3B3B;}
	.st1{fill:#646464;}
</style>
<g>
	<g>
		<path class="st0" d="M6.46,17.71c0-1-0.25-1.43-0.92-1.43c-0.67,0-0.92,0.42-0.92,1.43v7.95H0.83V13.61h3.66v1.47h0.04
			c0.48-1.18,1.45-1.78,2.75-1.78c1.55,0,2.31,0.62,2.77,1.85c0.59-1.36,1.7-1.85,2.86-1.85c1.66,0,2.96,0.69,2.96,3.28v9.09h-3.78
			v-7.95c0-1-0.25-1.43-0.92-1.43c-0.67,0-0.92,0.42-0.92,1.43v7.95H6.46V17.71z"/>
		<path class="st1" d="M22.8,17.71c0-1-0.25-1.43-0.92-1.43s-0.92,0.42-0.92,1.43v7.95h-3.78V13.61h3.65v1.47h0.04
			c0.48-1.18,1.45-1.78,2.75-1.78c1.55,0,2.31,0.62,2.77,1.85c0.59-1.36,1.7-1.85,2.86-1.85c1.66,0,2.96,0.69,2.96,3.28v9.09h-3.78
			v-7.95c0-1-0.25-1.43-0.92-1.43c-0.67,0-0.92,0.42-0.92,1.43v7.95H22.8V17.71z"/>
		<path class="st1" d="M44.52,0.66h-8.74c-0.72,0-1.3,0.59-1.3,1.33v8.88c0,0.73,0.58,1.33,1.3,1.33h3.5
			c-0.06,1.82-0.88,4.66-5.26,5.1c0,0,5.6,0.37,7.78-5.1h2.72c0.72,0,1.3-0.59,1.3-1.33V1.98C45.82,1.25,45.24,0.66,44.52,0.66z"/>
	</g>
</g>
</svg>
