<?xml version="1.0" encoding="utf-8"?>
<!-- Generator: Adobe Illustrator 26.3.1, SVG Export Plug-In . SVG Version: 6.00 Build 0)  -->
<svg version="1.1" id="Capa_1" xmlns="http://www.w3.org/2000/svg" xmlns:xlink="http://www.w3.org/1999/xlink" x="0px" y="0px"
	 viewBox="0 0 165 75" style="enable-background:new 0 0 165 75;" xml:space="preserve">
<style type="text/css">
	.st0{fill:#FFFFFF;}
</style>
<g>
	<path class="st0" d="M95.14,11.05c0.03-0.71-0.53-0.73-0.98-0.77c-1.98-0.18-3.94-0.45-5.93-0.56C86.62,9.63,85,9.6,83.38,9.6
		c-0.37,0-0.65-0.29-0.66-0.66C82.7,7.96,82.59,6.98,82.59,6c0-1.74-0.33-1.55,1.63-1.58c0.54-0.01,0.69,0.25,0.67,0.73
		c-0.02,0.61-0.01,1.22,0.01,1.83c0.02,0.51,0.29,0.78,0.81,0.77s0.79-0.28,0.81-0.78c0.02-0.58,0.01-1.17,0.01-1.75
		c0-0.38-0.03-0.72,0.5-0.84c0.35-0.08,0.36-0.44,0.03-0.56c-0.6-0.2-0.52-0.65-0.52-1.1c0-0.48,0-0.96-0.01-1.43
		c-0.02-0.52-0.33-0.76-0.83-0.75c-0.47,0-0.75,0.25-0.78,0.72C84.9,1.6,84.9,1.95,84.9,2.3c0,1.29,0,1.29-1.27,1.22
		c-0.08,0-0.16-0.01-0.24-0.01c-0.56-0.03-0.87-0.25-0.86-0.88s-0.07-1.27-0.1-1.91c-0.02-0.38-0.17-0.62-0.57-0.6
		c-0.36,0.02-0.47,0.27-0.49,0.6c-0.03,0.58-0.13,1.17-0.1,1.75c0.05,0.79-0.35,1.04-1.03,1.05c-0.24,0-0.48,0-0.72,0.02
		c-0.44,0.03-0.63-0.17-0.62-0.61c0.01-0.48,0-0.96,0-1.43c0-0.55-0.19-0.95-0.81-0.95c-0.61,0-0.84,0.36-0.83,0.92
		c0,0.48,0,0.96,0,1.43c0,0.38,0.01,0.71-0.46,0.89c-0.43,0.17-0.44,0.49,0.04,0.62c0.38,0.1,0.42,0.35,0.42,0.66
		c0,0.66-0.01,1.33,0.02,1.99c0.02,0.48,0.33,0.7,0.8,0.7c0.47,0.01,0.76-0.22,0.8-0.69c0.03-0.34,0.02-0.69,0.03-1.03
		c0.03-1.77-0.25-1.58,1.63-1.61c0.66-0.01,0.61,0.29,0.62,1.17c0.01,0.96,0.03,1.83,0.04,2.78c0.01,0.89-0.2,1.25-0.89,1.23
		c-1.04-0.03-2.09-0.09-3.13-0.02c-2.63,0.17-5.24,0.49-7.85,0.75c-0.55,0.06-0.71,0.38-0.67,0.88c0.03,0.48-0.15,1.09,0.61,1.16
		c0.43,0.04,0.51,0.28,0.51,0.64c-0.01,0.98,0,1.97,0,2.95c0,0.87,0,1.68,0,2.54l0,0v0.19c0,0,8.46,4.18,12.24,4.18
		s12.03-4.3,12.03-4.3c0.01-1.83,0-3.56,0.01-5.39c0-0.3-0.12-0.72,0.35-0.76C95.35,12.33,95.12,11.63,95.14,11.05z M75.65,13.78
		c0,0.56-0.46,1.01-1.01,1.01h-2.7c-0.56,0-1.01-0.46-1.01-1.01v-0.42c0-0.56,0.46-1.01,1.01-1.01h2.7c0.56,0,1.01,0.46,1.01,1.01
		V13.78z M81.34,13.78c0,0.56-0.46,1.01-1.01,1.01h-2.7c-0.56,0-1.01-0.46-1.01-1.01v-0.42c0-0.56,0.46-1.01,1.01-1.01h2.7
		c0.56,0,1.01,0.46,1.01,1.01V13.78z M87.04,13.78c0,0.56-0.46,1.01-1.01,1.01h-2.7c-0.56,0-1.01-0.46-1.01-1.01v-0.42
		c0-0.56,0.46-1.01,1.01-1.01h2.7c0.56,0,1.01,0.46,1.01,1.01V13.78z M92.73,13.78c0,0.56-0.46,1.01-1.01,1.01h-2.7
		c-0.56,0-1.01-0.46-1.01-1.01v-0.42c0-0.56,0.46-1.01,1.01-1.01h2.7c0.56,0,1.01,0.46,1.01,1.01V13.78z"/>
	<g>
		<path class="st0" d="M86.7,37.91c-0.02-0.01-0.05-0.01-0.07-0.02l0,0C86.65,37.9,86.68,37.91,86.7,37.91z"/>
		<path class="st0" d="M74.19,32.56c0.55,0.03,1.1,0.09,1.64,0.15c-2.44-5.84-5.15-8.86-5.15-8.86s3.56,2.87,6.78,9.05
			c2.25,0.32,4.46,0.8,6.66,1.33c0.61,0.14,1.21,0.29,1.82,0.44c3.41-7.4,7.64-10.82,7.64-10.82s-3.44,3.82-6.05,11.2
			c1.76,0.43,3.52,0.84,5.31,1.18c1.64-7.21,5.36-15.81,7.39-17.81c-5.71,2.45-15.31,6.39-18.02,6.39c-2.63,0-12.21-3.72-18.26-6.17
			c1.85,1.95,4.64,7.98,6.43,13.96C71.64,32.5,72.91,32.49,74.19,32.56z"/>
	</g>
	<g>
		<path class="st0" d="M58.63,38.04c0.31-0.21,0.62-0.42,0.93-0.62c2.63-1.68,5.5-2.87,8.71-3.4c1.96-0.33,3.93-0.38,5.91-0.27
			c3.39,0.19,6.67,0.9,9.93,1.67c3.15,0.75,6.26,1.58,9.46,2.15c1.84,0.33,3.68,0.55,5.56,0.63c3.03,0.13,5.97-0.21,8.81-1.12
			c0.59-0.19,1.15-0.42,1.73-0.63c0.1-0.04,0.18-0.11,0.35-0.09c-0.24,0.34-0.56,0.59-0.84,0.86c-1.17,1.09-2.47,2.04-3.98,2.76
			c-1.47,0.7-3.04,1.14-4.7,1.33c-2.52,0.29-4.98-0.02-7.42-0.52c-2.76-0.57-5.43-1.4-8.1-2.2c-2.81-0.84-5.63-1.66-8.53-2.23
			c-1.86-0.36-3.74-0.59-5.65-0.67c-3.31-0.13-6.49,0.31-9.57,1.37c-0.82,0.28-1.62,0.61-2.4,0.98c-0.05,0.02-0.11,0.04-0.16,0.07
			C58.66,38.08,58.65,38.06,58.63,38.04z"/>
	</g>
	<g>
		<path class="st0" d="M88.27,41.99c-0.06,0.09-0.14,0.06-0.21,0.06c-3.04,0.14-6.02-0.29-9-0.74c-2.38-0.36-4.77-0.72-7.18-0.93
			c-1.71-0.15-3.42-0.18-5.12-0.1c-2.9,0.12-5.72,0.62-8.44,1.51c-1.55,0.51-3.07,1.08-4.5,1.84c-0.04,0.02-0.08,0.03-0.18,0.07
			c0.19-0.26,0.46-0.35,0.66-0.5c1.84-1.26,3.79-2.39,5.89-3.29c2.14-0.92,4.38-1.55,6.76-1.8c1.86-0.19,3.71-0.13,5.56,0.12
			c2.47,0.33,4.84,0.96,7.21,1.63c2.8,0.78,5.59,1.59,8.47,2.09C88.22,41.96,88.23,41.97,88.27,41.99z"/>
	</g>
	<g>
		<g>
			<path class="st0" d="M16.9,61.31h-2.86V52.9c-0.12,0.42-0.26,0.83-0.42,1.22s-0.32,0.77-0.49,1.13l-2.95,6.05H6.95L4,55.26
				c-0.36-0.71-0.66-1.49-0.9-2.35v8.41H0.22V47.8h3.23l3.75,7.9c0.26,0.56,0.52,1.13,0.78,1.7c0.26,0.57,0.45,1.07,0.58,1.49
				c0.07-0.31,0.23-0.73,0.47-1.26c0.24-0.53,0.54-1.17,0.9-1.93l3.74-7.9h3.23V61.31z"/>
		</g>
		<g>
			<path class="st0" d="M34.2,57.24c0,0.55-0.11,1.07-0.32,1.56s-0.5,0.92-0.87,1.29c-0.37,0.37-0.79,0.66-1.28,0.88
				s-1.01,0.33-1.57,0.33h-7.38c-0.55,0-1.07-0.11-1.56-0.32s-0.92-0.5-1.29-0.87c-0.37-0.37-0.66-0.8-0.87-1.29
				c-0.21-0.49-0.32-1.02-0.32-1.58v-9.42h3.03v9.42c0,0.29,0.1,0.53,0.3,0.73c0.2,0.2,0.44,0.3,0.71,0.3h7.38
				c0.27,0,0.51-0.1,0.71-0.3c0.2-0.2,0.3-0.44,0.3-0.73v-9.42h3.03V57.24z"/>
		</g>
		<g>
			<path class="st0" d="M49,61.31H35.75V47.8h3.03v10.48H49V61.31z"/>
		</g>
		<g>
			<path class="st0" d="M59.53,50.83h-4.97v10.48h-3.03V50.83h-4.89V47.8h12.89V50.83z"/>
		</g>
		<g>
			<path class="st0" d="M64.2,61.31h-3.03V47.8h3.03V61.31z"/>
		</g>
		<g>
			<path class="st0" d="M80.83,53.2c0,0.55-0.11,1.06-0.32,1.55c-0.21,0.49-0.5,0.91-0.87,1.28s-0.79,0.66-1.28,0.88
				s-1.01,0.33-1.57,0.33H69v4.07h-3.03V47.82h10.82c0.54,0,1.05,0.11,1.54,0.33s0.92,0.51,1.29,0.88c0.37,0.37,0.66,0.8,0.88,1.29
				c0.22,0.49,0.33,1.01,0.33,1.56V53.2z M77.8,51.87c0-0.29-0.1-0.53-0.3-0.73c-0.2-0.2-0.44-0.3-0.71-0.3H69v3.36h7.79
				c0.27,0,0.51-0.1,0.71-0.3s0.3-0.44,0.3-0.71V51.87z"/>
		</g>
		<g>
			<path class="st0" d="M99.27,61.29h-3.49l-1.49-3.03h-7.83l-1.49,3.03h-3.51l7.06-13.47h3.7L99.27,61.29z M92.67,55.24
				c-0.65-1.17-1.16-2.18-1.54-3.02s-0.64-1.51-0.78-2.01c-0.27,0.96-1.04,2.64-2.3,5.03H92.67z"/>
		</g>
		<g>
			<path class="st0" d="M115.31,53.2c0,0.55-0.11,1.06-0.32,1.55c-0.21,0.49-0.5,0.91-0.87,1.28s-0.79,0.66-1.28,0.88
				s-1.01,0.33-1.57,0.33h-0.45l4.09,4.05h-4.3l-3.87-4.05h-4.02v4.07h-3.03V47.82h11.56c0.56,0,1.08,0.11,1.57,0.33
				s0.91,0.51,1.28,0.88c0.37,0.37,0.66,0.8,0.87,1.29s0.32,1.01,0.32,1.56v1.32H115.31z M112.29,51.87c0-0.29-0.1-0.53-0.3-0.73
				c-0.2-0.2-0.44-0.3-0.71-0.3h-8.54v3.36h8.54c0.27,0,0.51-0.1,0.71-0.3s0.3-0.44,0.3-0.71V51.87z"/>
		</g>
		<g>
			<path class="st0" d="M137.63,57.18c0,0.67-0.13,1.26-0.39,1.77c-0.26,0.51-0.62,0.94-1.08,1.28s-1,0.6-1.63,0.78
				c-0.62,0.18-1.3,0.27-2.02,0.27h-9.28v-3.03h9.84c0.37,0,0.69-0.09,0.96-0.28s0.4-0.45,0.4-0.8s-0.14-0.62-0.41-0.82
				s-0.59-0.3-0.95-0.3h-5.34c-0.7,0-1.35-0.09-1.95-0.27s-1.13-0.45-1.58-0.8c-0.45-0.35-0.8-0.79-1.06-1.3
				c-0.26-0.51-0.38-1.1-0.38-1.77c0-0.66,0.13-1.24,0.38-1.76c0.26-0.51,0.61-0.94,1.06-1.28s0.97-0.6,1.58-0.78
				c0.6-0.18,1.25-0.27,1.95-0.27h9.25v3.03h-9.73c-0.41,0-0.75,0.1-1.02,0.31c-0.27,0.21-0.4,0.47-0.4,0.79s0.13,0.59,0.39,0.78
				c0.26,0.2,0.6,0.3,1.03,0.3h5.27c0.75,0,1.43,0.1,2.05,0.31c0.62,0.21,1.16,0.49,1.62,0.87c0.45,0.37,0.81,0.81,1.06,1.32
				C137.51,56.03,137.63,56.58,137.63,57.18z"/>
		</g>
		<g>
			<path class="st0" d="M142.1,61.27h-3.03v-1.91h3.03V61.27z"/>
		</g>
		<g>
			<path class="st0" d="M161.15,61.29h-3.49l-1.49-3.03h-7.83l-1.49,3.03h-3.51l7.06-13.47h3.7L161.15,61.29z M154.56,55.24
				c-0.65-1.17-1.16-2.18-1.54-3.02c-0.38-0.84-0.64-1.51-0.78-2.01c-0.27,0.96-1.04,2.64-2.3,5.03H154.56z"/>
		</g>
		<g>
			<path class="st0" d="M164.78,61.27h-3.03v-1.91h3.03V61.27z"/>
		</g>
	</g>
	<g>
		<g>
			<rect x="136.51" y="71.16" class="st0" width="8.01" height="1.18"/>
		</g>
		<g>
			<rect x="20.49" y="71.16" class="st0" width="8.01" height="1.18"/>
		</g>
	</g>
	<g>
		<path class="st0" d="M41.38,74.75v-7.08h2.75c0.64,0,1.18,0.21,1.62,0.65c0.45,0.43,0.67,0.95,0.67,1.6
			c0,0.92-0.52,1.69-1.29,2.01l1.72,2.82h-1.43l-1.51-2.52h-0.02h-1.24v2.52H41.38z M42.65,71.09H44c0.69,0,1.17-0.48,1.17-1.16
			c0-0.65-0.46-1.12-1.07-1.12h-1.45C42.65,68.81,42.65,71.09,42.65,71.09z"/>
		<path class="st0" d="M50.12,74.75v-7.08h1.27v7.08H50.12z M50.19,67.18l0.52-1.47h1.39l-0.99,1.47H50.19z"/>
		<path class="st0" d="M55.95,73.83c-0.72-0.7-1.09-1.57-1.09-2.61s0.37-1.91,1.09-2.61c0.72-0.71,1.6-1.07,2.65-1.07
			c1.05,0,1.93,0.36,2.65,1.07c0.73,0.7,1.1,1.57,1.1,2.61s-0.37,1.91-1.09,2.61s-1.62,1.06-2.66,1.06
			C57.55,74.89,56.67,74.53,55.95,73.83z M56.82,73.02c0.48,0.48,1.08,0.72,1.78,0.72s1.29-0.24,1.77-0.72
			c0.48-0.49,0.72-1.09,0.72-1.8c0-0.71-0.24-1.31-0.72-1.8c-0.48-0.49-1.07-0.73-1.77-0.73s-1.3,0.24-1.78,0.73
			c-0.48,0.49-0.71,1.09-0.71,1.8C56.11,71.94,56.34,72.54,56.82,73.02z"/>
		<path class="st0" d="M71.79,74.75v-7.08h2.7c0.6,0,1.14,0.21,1.6,0.64c0.47,0.43,0.7,0.99,0.7,1.67c0,0.66-0.23,1.21-0.7,1.65
			c-0.46,0.44-1,0.65-1.6,0.65h-1.43v2.48h-1.27V74.75z M73.06,71.12h1.37c0.57,0,1.11-0.42,1.11-1.15c0-0.74-0.54-1.16-1.11-1.16
			h-1.37V71.12z"/>
		<path class="st0" d="M78.89,74.75l2.96-7.08h1.08l2.96,7.08h-1.34l-0.58-1.41h-3.15l-0.58,1.41H78.89z M81.21,72.29h2.36
			l-1.18-2.88L81.21,72.29z"/>
		<path class="st0" d="M89.13,74.75v-7.08h2.75c0.64,0,1.18,0.21,1.62,0.65c0.45,0.43,0.67,0.95,0.67,1.6
			c0,0.92-0.52,1.69-1.29,2.01l1.72,2.82h-1.43l-1.51-2.52h-0.02H90.4v2.52H89.13z M90.4,71.09h1.35c0.69,0,1.17-0.48,1.17-1.16
			c0-0.65-0.46-1.12-1.07-1.12H90.4V71.09z"/>
		<path class="st0" d="M97.04,74.75l2.96-7.08h1.08l2.96,7.08h-1.34l-0.58-1.41h-3.15l-0.58,1.41H97.04z M99.35,72.29h2.36
			l-1.18-2.88L99.35,72.29z"/>
		<path class="st0" d="M107.28,74.75v-7.08h1.12l3.75,4.92v-4.92h1.23v7.08h-1.04l-3.83-5.01v5.01H107.28z"/>
		<path class="st0" d="M116.63,74.75l2.96-7.08h1.08l2.96,7.08h-1.34l-0.58-1.41h-3.15l-0.58,1.41H116.63z M118.94,72.29h2.36
			l-1.18-2.88L118.94,72.29z M119.39,67.18l0.52-1.47h1.39l-1,1.47H119.39z"/>
	</g>
</g>
</svg>
